<?xml version="1.0" encoding="utf-8"?>
<!-- Generator: Adobe Illustrator 16.0.0, SVG Export Plug-In . SVG Version: 6.00 Build 0)  -->
<!DOCTYPE svg PUBLIC "-//W3C//DTD SVG 1.1//EN" "http://www.w3.org/Graphics/SVG/1.1/DTD/svg11.dtd">
<svg version="1.1" id="Calque_1" xmlns="http://www.w3.org/2000/svg" xmlns:xlink="http://www.w3.org/1999/xlink" x="0px" y="0px"
	 width="9772.439px" height="2931.019px" viewBox="0 0 9772.439 2931.019" enable-background="new 0 0 9772.439 2931.019"
	 xml:space="preserve">
<path fill="#2EBD59" d="M1785.173,353.006c-636.494,0-1152.498,515.99-1152.498,1152.482
	c0,636.562,516.004,1152.524,1152.498,1152.524c636.521,0,1152.497-515.962,1152.497-1152.524
	c0-636.452-515.95-1152.428-1152.512-1152.428L1785.173,353.006z M2313.701,2015.217c-20.698,33.952-64.931,44.591-98.772,23.905
	c-270.636-165.409-611.281-202.774-1012.452-111.131c-38.658,8.864-77.193-15.371-86-54.017
	c-8.849-38.659,15.275-77.193,54.03-86.001c439.018-100.368,815.597-57.169,1119.372,128.456
	c33.856,20.783,44.589,64.96,23.809,98.814L2313.701,2015.217z M2454.764,1701.451c-26.066,42.292-81.363,55.559-123.6,29.59
	c-309.721-190.389-782.002-245.535-1148.423-134.306c-47.521,14.354-97.713-12.428-112.136-59.867
	c-14.313-47.521,12.483-97.616,59.921-112.067c418.554-126.997,938.878-65.48,1294.634,153.134
	c42.252,26.012,55.6,81.336,29.589,123.531L2454.764,1701.451L2454.764,1701.451z M2466.875,1374.678
	c-371.501-220.624-984.281-240.91-1338.922-133.274c-56.948,17.272-117.172-14.878-134.43-71.825
	c-17.258-56.976,14.864-117.16,71.853-134.472c407.104-123.584,1083.865-99.708,1511.514,154.166
	c51.224,30.399,68.029,96.556,37.667,147.709c-30.277,51.223-96.612,68.11-147.669,37.696H2466.875z M3768.24,1416.957
	c-198.991-47.453-234.415-80.757-234.415-150.739c0-66.115,62.247-110.607,154.812-110.607c89.73,0,178.703,33.787,271.985,103.341
	c2.821,2.107,6.358,2.944,9.84,2.395c3.482-0.523,6.565-2.437,8.602-5.312l97.162-136.963c3.991-5.644,2.904-13.419-2.477-17.726
	c-111.021-89.083-236.038-132.395-382.165-132.395c-214.857,0-364.936,128.939-364.936,313.423
	c0,197.833,129.462,267.883,353.183,321.956c190.415,43.86,222.551,80.606,222.551,146.294c0,72.789-64.986,118.038-169.565,118.038
	c-116.154,0-210.894-39.126-316.878-130.906c-2.628-2.271-6.234-3.303-9.564-3.11c-3.51,0.289-6.717,1.914-8.945,4.598
	l-108.942,129.654c-4.57,5.38-3.991,13.418,1.294,18.07c123.31,110.084,274.97,168.23,438.632,168.23
	c231.523,0,381.134-126.504,381.134-322.299c0.412-165.286-98.538-256.807-340.893-315.765L3768.24,1416.957L3768.24,1416.957z
	 M4633.338,1220.705c-100.354,0-182.667,39.525-250.543,120.517v-91.161c0-7.198-5.835-13.061-13.019-13.061h-178.181
	c-7.196,0-13.019,5.863-13.019,13.061v1012.934c0,7.197,5.821,13.059,13.019,13.059h178.181c7.184,0,13.019-5.861,13.019-13.059
	v-319.741c67.89,76.188,150.216,113.417,250.543,113.417c186.465,0,375.23-143.54,375.23-417.935
	c0.276-274.462-188.544-418.043-375.024-418.043l-0.207,0.014V1220.705z M4801.375,1638.736
	c0,139.729-86.069,237.236-209.312,237.236c-121.836,0-213.742-101.938-213.742-237.236c0-135.282,91.906-237.234,213.742-237.234
	c121.247-0.015,209.326,99.735,209.326,237.221L4801.375,1638.736L4801.375,1638.736z M5492.382,1220.705
	c-240.139,0-428.271,184.912-428.271,421.016c0,233.533,186.838,416.503,425.325,416.503c240.991,0,429.7-184.291,429.7-419.488
	c0-234.387-187.443-418.003-426.77-418.003L5492.382,1220.705L5492.382,1220.705z M5492.382,1877.36
	c-127.729,0-224.024-102.626-224.024-238.693c0-136.646,92.966-235.804,221.078-235.804c128.554,0,225.494,102.626,225.494,238.79
	c0,136.618-93.582,235.707-222.536,235.707H5492.382L5492.382,1877.36z M6431.934,1237h-196.072v-200.461
	c0-7.184-5.808-13.047-13.004-13.047h-178.154c-7.211,0-13.059,5.863-13.059,13.047V1237h-85.672
	c-7.17,0-12.978,5.863-12.978,13.061v153.134c0,7.184,5.808,13.06,12.978,13.06h85.672v396.23
	c0,160.124,79.697,241.308,236.877,241.308c63.912,0,116.937-13.198,166.909-41.534c4.06-2.271,6.577-6.646,6.577-11.298v-145.826
	c0-4.5-2.341-8.752-6.192-11.104c-3.882-2.438-8.712-2.561-12.689-0.594c-34.324,17.272-67.504,25.241-104.593,25.241
	c-57.168,0-82.672-25.957-82.672-84.13v-368.224h196.072c7.198,0,12.991-5.863,12.991-13.061v-153.12
	c0.276-7.196-5.505-13.059-12.797-13.059L6431.934,1237z M6719.016,1237h-178.18c-7.198,0-13.061,5.863-13.061,13.061v777.364
	c0,7.196,5.862,13.06,13.061,13.06h178.18c7.185,0,13.06-5.863,13.06-13.06v-777.309c0.017-7.198-5.804-13.045-13.001-13.06
	c-0.025,0-0.048,0-0.073,0L6719.016,1237z M6630.938,883.047c-70.587,0-127.866,57.142-127.866,127.729
	c0,70.629,57.294,127.839,127.867,127.839c70.559,0,127.781-57.21,127.781-127.839c0-70.573-57.25-127.727-127.713-127.727h-0.069
	V883.047z"/>
<g>
	<polyline fill="none" points="6758.72,234.009 9918.721,234.009 9918.721,1874.009 6758.72,1874.009 	"/>
</g>
<g>
	<g>
		<path fill="#2EBD59" d="M7170.833,1249.444c-42.453,0-66.713,23.328-66.713,75.168v27.216h149.195v160.705h-146.77v526.178
			h-184.371v-526.178h-76.417v-162.001h76.417v-44.064c0-152.928,71.565-222.913,201.353-222.913
			c58.223,0,97.038,7.776,131.001,19.44v163.297C7227.843,1255.924,7202.371,1249.444,7170.833,1249.444z"/>
		<path fill="#2EBD59" d="M7736.06,1537.158c-122.51,0-197.714,79.056-197.714,244.944v256.609h-184.371v-694.659h184.371v139.968
			c37.603-95.904,98.251-158.112,207.418-152.929v206.065H7736.06z"/>
		<path fill="#2EBD59" d="M8446.855,1760.071h-452.437c18.194,89.424,76.417,136.08,158.898,136.08
			c61.861,0,106.742-20.736,157.687-71.28l105.527,99.792c-60.648,80.353-147.982,129.601-265.64,129.601
			c-195.287,0-339.631-146.448-339.631-358.993v-2.592c0-198.289,132.214-361.586,321.437-361.586
			c217.122,0,316.584,180.145,316.584,377.138v2.592C8449.281,1730.262,8448.068,1741.926,8446.855,1760.071z M8132.697,1489.205
			c-76.417,0-126.148,58.321-140.704,147.745h277.769C8258.846,1548.822,8210.326,1489.205,8132.697,1489.205z"/>
		<path fill="#2EBD59" d="M9190.389,1760.071h-452.438c18.195,89.424,76.418,136.08,158.898,136.08
			c61.861,0,106.742-20.736,157.688-71.28l105.527,99.792c-60.648,80.353-147.982,129.601-265.641,129.601
			c-195.287,0-339.631-146.448-339.631-358.993v-2.592c0-198.289,132.215-361.586,321.438-361.586
			c217.121,0,316.584,180.145,316.584,377.138v2.592C9192.814,1730.262,9191.602,1741.926,9190.389,1760.071z M8876.23,1489.205
			c-76.418,0-126.148,58.321-140.705,147.745h277.77C9002.379,1548.822,8953.859,1489.205,8876.23,1489.205z"/>
	</g>
</g>
</svg>
